<?xml version="1.0" encoding="UTF-8" standalone="no"?>
<svg
   xmlns:dc="http://purl.org/dc/elements/1.1/"
   xmlns:cc="http://creativecommons.org/ns#"
   xmlns:rdf="http://www.w3.org/1999/02/22-rdf-syntax-ns#"
   xmlns:svg="http://www.w3.org/2000/svg"
   xmlns="http://www.w3.org/2000/svg"
   xmlns:sodipodi="http://sodipodi.sourceforge.net/DTD/sodipodi-0.dtd"
   xmlns:inkscape="http://www.inkscape.org/namespaces/inkscape"
   width="210mm"
   height="297mm"
   viewBox="0 0 210 297"
   version="1.1"
   id="svg8"
   inkscape:version="1.0.2 (e86c8708, 2021-01-15)"
   sodipodi:docname="drawing.svg">
  <defs
     id="defs2" />
  <sodipodi:namedview
     id="base"
     pagecolor="#ffffff"
     bordercolor="#666666"
     borderopacity="1.0"
     inkscape:pageopacity="0.0"
     inkscape:pageshadow="2"
     inkscape:zoom="0.21547507"
     inkscape:cx="-761.06837"
     inkscape:cy="1092.872"
     inkscape:document-units="mm"
     inkscape:current-layer="layer1"
     inkscape:document-rotation="0"
     showgrid="false"
     inkscape:window-width="1252"
     inkscape:window-height="785"
     inkscape:window-x="0"
     inkscape:window-y="25"
     inkscape:window-maximized="0" />
  <metadata
     id="metadata5">
    <rdf:RDF>
      <cc:Work
         rdf:about="">
        <dc:format>image/svg+xml</dc:format>
        <dc:type
           rdf:resource="http://purl.org/dc/dcmitype/StillImage" />
        <dc:title></dc:title>
      </cc:Work>
    </rdf:RDF>
  </metadata>
  <g
     inkscape:label="Layer 1"
     inkscape:groupmode="layer"
     id="layer1">
    <g
       fill-rule="evenodd"
       clip-rule="evenodd"
       id="g1378"
       transform="matrix(3.4315836,0,0,3.4315836,-471.93847,-39.715214)">
      <path
         fill="#ffffff"
         d="M 0,0 H 192.756 L 158.109,140.928 0,192.756 Z"
         id="path1328"
         sodipodi:nodetypes="ccccc" />
      <path
         d="m 96.378,8.504 c -48.484,0 -87.849,39.378 -87.849,87.874 0,48.497 39.365,87.874 87.849,87.874 48.483,0 87.849,-39.377 87.849,-87.874 0,-48.496 -39.366,-87.874 -87.849,-87.874 z"
         id="path1330" />
      <path
         d="m 96.378,10.39 c 47.464,0 85.958,38.508 85.958,85.988 0,47.48 -38.494,85.988 -85.958,85.988 -47.464,0 -85.959,-38.508 -85.959,-85.988 0,-47.48 38.495,-85.988 85.959,-85.988 z"
         fill="#ffffff"
         id="path1332" />
      <path
         d="m 96.327,32.262 c -35.39,0 -64.09,28.712 -64.09,64.116 0,35.404 28.7,64.116 64.09,64.116 35.39,0 64.091,-28.713 64.091,-64.116 0,-35.403 -28.701,-64.116 -64.091,-64.116 z"
         id="path1334" />
      <path
         d="m 96.327,33.698 c 34.604,0 62.659,28.068 62.659,62.68 0,34.612 -28.055,62.681 -62.659,62.681 -34.604,0 -62.659,-28.069 -62.659,-62.681 0,-34.612 28.055,-62.68 62.659,-62.68 z"
         fill="#ffffff"
         id="path1336" />
      <path
         d="m 59.766,106.499 2.137,6.496 c 1.714,5.237 2.637,7.167 4.527,10.267 3.184,5.198 6.236,10.52 10.342,15.09 4.314,4.822 9.088,9.301 14.365,13.076 l 4.443,2.725 3.855,-2.557 c 9.551,-6.328 15.916,-14.838 24.336,-26.527 0.504,-0.676 0.543,-1.051 1.512,-2.394 0.961,-1.343 2.176,-3.476 2.217,-3.56 3.898,-7.419 4.357,-9.68 6.244,-14.838 0.666,-1.718 1.258,-4.778 1.674,-6.58 0.502,-2.221 0.67,-6.915 0.67,-9.891 V 54.152 H 56.582 l 0.044,33.91 c -0.044,2.261 0.42,4.478 0.751,6.704 0.591,3.939 1.342,7.874 2.389,11.733 z"
         id="path1338" />
      <path
         d="m 98.529,83.904 c 0,0.168 -1.59,2.389 -3.141,2.681 l -36.066,0.044 c -1.179,0 -1.179,-1.555 -1.179,-1.926 V 73.218 c 0,-1.802 2.053,-1.674 0.839,-1.674 h 36.406 c 0.124,0 0.839,0.084 0.839,-0.504 V 56.035 l 0.835,-0.212 3.307,4.986 c -0.33,1.091 -1.215,2.053 -1.506,3.188 -0.088,0.335 0.125,0.755 0.291,1.091 0.213,0.38 0.963,0.459 1.172,0.331 0.676,-0.504 1.426,-1.254 1.93,-2.137 l 2.473,1.929 c 0.123,0.044 -2.637,2.473 -3.016,6.704 -0.084,0.799 -0.924,2.142 -1.428,1.89 -1.17,-0.587 0.717,-3.1 -0.084,-4.822 -0.207,-0.504 -1.047,-0.504 -1.465,-0.168 -0.504,0.464 -0.207,1.175 -0.248,1.723 z m 1.315,3.467 33.766,0.084 c 0.84,0 1.342,0.459 -0.381,1.673 l -4.773,3.816 c 0.041,0 -1.297,-1.17 -1.885,-1.466 -0.924,-0.503 -1.342,-0.587 -2.305,-0.38 -0.332,0.044 -0.588,0.464 -0.627,0.799 -0.125,0.799 0.754,1.426 1.381,1.55 0.504,0.084 1.678,0.963 1.678,0.963 l -2.393,2.305 c 0,0 -0.791,-0.124 -1.086,-0.415 -0.291,-0.296 -1.842,-1.97 -2.014,-2.014 -1.215,-0.504 -2.385,-0.879 -4.143,-1.175 -0.041,0 -3.688,0.212 -3.984,-0.375 -0.375,-0.756 2.895,-1.427 3.771,-1.506 1.008,-0.088 1.551,-0.044 2.178,-0.088 1.723,-0.208 1.51,-1.091 1.008,-1.091 h -0.711 l -19.648,0.044 c -0.963,0 -1.131,-0.503 -2.133,-1.174 -0.256,-0.168 -1.135,-1.047 -1.006,-1.343 1.254,-0.207 2.053,-0.455 3.307,-0.207 z"
         fill="#ffffff"
         id="path1340" />
      <path
         d="m 59.894,87.801 33.496,0.053 c 0.658,0 1.4,0.358 1.4,1.095 v 12.418 c 0,0.645 -0.358,1.399 -1.082,1.399 l -32.692,-0.093 c -0.698,0 -0.989,-0.569 -0.989,-1.36 l -1.903,-12.06 c -0.001,-0.776 1.094,-1.452 1.77,-1.452 z M 59.64,55.667 h 33.748 c 0.658,0 1.399,0.358 1.399,1.095 V 69.18 c 0,0.645 -0.344,1.4 -1.086,1.4 H 59.64 c -0.702,0 -1.519,-0.344 -1.519,-1.152 V 56.696 c 0,-0.777 0.843,-1.029 1.519,-1.029 z"
         fill="#c1352c"
         id="path1342" />
      <path
         d="m 118.34,83.955 c 0.543,-0.04 1.551,-0.208 1.551,0.419 0,0.504 -0.336,0.504 -0.627,0.627 l -18.227,-0.039 h -1.17 c -0.547,-0.124 -0.168,-0.588 0.336,-1.007 l 32.922,-26.023 c 0.799,-0.592 1.215,-0.38 1.215,0.543 l 0.043,26.823 c 0,0.503 0.129,1.17 -0.291,1.17 -0.379,0 -0.627,-0.251 -0.967,-0.375 l -5.021,-2.809 c -0.838,0.879 -1.969,1.595 -3.188,1.511 -0.459,-0.04 -1.092,-0.168 -1.047,-0.715 0.084,-1.17 3.1,-2.557 3.139,-2.513 l -2.176,-2.725 c -0.209,-0.251 -0.504,-0.04 -0.752,0 -1.006,0.124 -1.51,1.131 -2.389,1.55 -2.602,1.214 -5.947,1.594 -8.125,1.214 -0.297,-0.084 -0.799,0.296 -0.465,0.592 a 6.57,6.57 0 0 0 5.239,1.757 z m -53.058,34.386 c -2.434,-5.366 -3.896,-11.067 -4.191,-12.409 -0.335,-1.338 0.884,-1.674 2.054,-1.674 h 30.498 c 0.419,0 0.962,-0.208 1.298,0.084 0.459,0.42 0.251,1.086 0.335,1.678 v 13.243 c 0.04,1.299 -0.543,1.007 -0.799,1.171 H 68.298 c -2.217,0 -2.389,-0.711 -3.016,-2.093 z m 58.952,0.404 1.047,1.131 c 0.168,0.38 -0.123,0.543 -0.42,1.342 0,0.124 -0.627,0.84 -1.086,1.511 -4.357,6.496 -14.078,19.359 -22.158,25.692 -0.504,0.419 -2.559,2.177 -3.186,2.636 -0.547,0.38 -1.757,1.259 -2.344,1.343 -0.631,0.128 -0.419,-1.846 -0.464,-2.221 0,-0.084 0.044,-0.208 0.044,-0.292 l 3.432,-3.479 c 0.379,-0.46 -0.588,-1.59 -1.008,-1.763 -0.455,-0.167 -0.918,-0.671 -0.918,-1.633 0,-0.336 0.463,-0.588 0.756,-0.8 0.666,-0.371 1.426,0.923 1.756,1.387 0.336,0.459 0.672,1.59 0.879,1.427 l 3.186,-2.897 c 0,-0.331 -0.42,-0.499 -0.584,-0.751 -1.93,-2.641 -2.725,-5.612 -1.549,-9.305 0.418,-1.298 0.078,-1.55 -1.053,0 -1.129,1.551 -1.045,3.608 -1.59,5.45 -0.463,1.506 -1.338,1.886 -1.338,1.426 l 0.084,-1.13 V 92.762 c 0.041,-1.847 1.965,-0.923 2.346,-0.504 z"
         fill="#ffffff"
         id="path1344" />
      <path
         d="m 69.17,121.362 h 24.2 c 0.658,0 1.4,0.357 1.4,1.095 v 12.418 c 0,0.658 -0.344,1.4 -1.073,1.4 H 78.14 c -1.533,0 -1.52,-0.173 -2.125,-0.809 -2.248,-2.31 -8.059,-11.557 -8.771,-13.693 -0.197,-0.53 1.256,-0.411 1.926,-0.411 z"
         fill="#c1352c"
         id="path1346" />
      <path
         d="m 27.987,142.747 a 83.755,83.755 0 0 0 3.259,4.57 l 0.424,-0.322 c -0.119,-0.159 -0.243,-0.313 -0.366,-0.481 -0.623,-0.821 -0.53,-1.629 0.097,-2.071 l 6.974,-5.052 a 95.194,95.194 0 0 0 -5.035,10.537 c 0.08,0.097 0.164,0.203 0.248,0.3 a 97.248,97.248 0 0 0 11.243,-3.101 l -6.165,5.932 c -0.579,0.569 -1.378,0.45 -1.863,-0.022 -0.208,-0.221 -0.42,-0.45 -0.627,-0.671 l -0.394,0.366 a 83.137,83.137 0 0 0 5.008,5.034 l 0.367,-0.393 a 46.773,46.773 0 0 0 -0.53,-0.486 c -0.623,-0.587 -0.72,-1.413 -0.186,-1.956 l 6.801,-6.995 c 0.569,-0.525 1.285,-0.499 1.749,-0.062 0.164,0.149 0.318,0.3 0.481,0.445 l 0.367,-0.397 a 71.982,71.982 0 0 1 -2.729,-2.658 94.043,94.043 0 0 1 -10.594,3.18 96.044,96.044 0 0 1 4.809,-9.936 66.036,66.036 0 0 1 -2.213,-3.162 l -0.437,0.287 c 0.098,0.163 0.208,0.322 0.314,0.481 0.458,0.667 0.331,1.408 -0.239,1.806 l -7.962,5.596 c -0.755,0.472 -1.488,0.221 -1.868,-0.297 a 24.155,24.155 0 0 1 -0.508,-0.75 z M 45.549,50.28 a 67.856,67.856 0 0 1 4.116,-4.248 l -0.358,-0.38 a 6.943,6.943 0 0 0 -0.366,0.362 c -0.627,0.591 -1.36,0.578 -1.926,0.013 l -3.073,-3.074 c 0.221,-0.226 0.441,-0.446 0.667,-0.662 2.654,0.296 5.255,0.733 7.772,1.303 a 69.478,69.478 0 0 1 2.897,-2.332 l -0.322,-0.419 c -1.1,0.751 -1.701,0.826 -2.539,0.623 a 73.888,73.888 0 0 0 -6.072,-1.179 5.539,5.539 0 0 0 1.073,-2.328 c 0.176,-1.029 0.004,-1.895 -0.649,-2.685 -0.583,-0.711 -1.616,-1.162 -2.773,-1.051 -0.923,0.093 -1.965,0.438 -3.586,1.961 -0.87,0.825 -1.625,1.762 -2.451,2.623 a 73.154,73.154 0 0 0 -2.411,2.588 l 0.415,0.362 c 0.129,-0.146 0.248,-0.278 0.38,-0.419 0.671,-0.755 1.501,-0.839 2.027,-0.345 2.376,2.222 4.761,4.447 7.132,6.668 0.499,0.473 0.539,1.272 0,1.877 -0.124,0.127 -0.243,0.26 -0.362,0.393 0.14,0.124 0.272,0.234 0.409,0.349 z M 157.99,151.535 a 78.617,78.617 0 0 0 4.434,-5.521 L 162,145.701 c -0.119,0.163 -0.238,0.326 -0.361,0.485 -0.609,0.821 -1.4,0.968 -2.027,0.473 l -3.426,-2.663 c 0.189,-0.247 0.387,-0.508 0.578,-0.755 a 75.63,75.63 0 0 0 8.156,-0.816 81.62,81.62 0 0 0 2.332,-3.78 l -0.469,-0.273 c -0.848,1.324 -1.457,1.673 -2.35,1.819 a 76.819,76.819 0 0 1 -6.324,0.737 c 0.398,-0.812 0.543,-1.735 0.451,-2.518 -0.133,-1.02 -0.57,-1.771 -1.439,-2.327 -0.781,-0.494 -1.873,-0.627 -2.875,-0.313 -0.791,0.234 -1.594,0.725 -2.689,2.217 -0.592,0.809 -1.092,1.674 -1.719,2.451 a 65.959,65.959 0 0 1 -1.902,2.274 l 0.414,0.366 c 0.111,-0.124 0.223,-0.247 0.328,-0.371 0.553,-0.636 1.303,-0.706 1.85,-0.256 2.514,2.08 5.021,4.151 7.529,6.227 0.531,0.437 0.566,1.298 -0.066,2.031 -0.131,0.164 -0.27,0.317 -0.41,0.477 0.14,0.115 0.278,0.234 0.409,0.349 z M 37.221,61.877 a 72.078,72.078 0 0 1 3.153,-5.013 l -0.428,-0.292 c -0.097,0.146 -0.195,0.279 -0.287,0.424 -0.495,0.72 -1.214,0.856 -1.881,0.419 l -3.643,-2.372 c 0.172,-0.26 0.349,-0.521 0.517,-0.79 a 71.906,71.906 0 0 1 7.874,-0.327 65.274,65.274 0 0 1 2.354,-2.879 l -0.402,-0.354 c -0.923,0.958 -1.497,1.157 -2.358,1.135 a 71.445,71.445 0 0 0 -6.191,0.119 c 0.402,-0.808 0.601,-1.717 0.565,-2.504 -0.026,-1.051 -0.371,-1.868 -1.179,-2.504 -0.716,-0.569 -1.824,-0.799 -2.924,-0.45 -0.883,0.278 -1.837,0.844 -3.113,2.667 -0.676,0.98 -1.219,2.053 -1.854,3.06 a 105.998,105.998 0 0 0 -1.82,3.029 l 0.482,0.283 c 0.092,-0.172 0.189,-0.335 0.287,-0.499 0.499,-0.87 1.293,-1.126 1.907,-0.755 2.782,1.691 5.568,3.37 8.355,5.057 0.588,0.357 0.795,1.122 0.389,1.824 -0.084,0.159 -0.176,0.304 -0.269,0.468 0.161,0.086 0.315,0.17 0.466,0.254 z M 87.467,27.913 a 72.885,72.885 0 0 1 4.685,-0.481 L 92.126,26.92 c -0.172,0.013 -0.336,0.022 -0.499,0.036 -0.901,0.062 -1.444,-0.411 -1.506,-1.117 l -0.817,-8.55 a 70.178,70.178 0 0 1 9.843,10.034 c 0.15,0.004 0.301,0.004 0.459,0.013 l 0.473,-11.53 c 0.027,-0.795 0.654,-1.268 1.643,-1.21 l 0.637,0.039 0.035,-0.521 A 79.658,79.658 0 0 0 96.76,13.92 v 0.534 h 0.599 c 1.043,0.014 1.617,0.552 1.596,1.334 l -0.209,7.706 a 72.785,72.785 0 0 0 -9.498,-9.225 69.652,69.652 0 0 0 -3.577,0.411 l 0.07,0.53 a 2.217,2.217 0 0 1 1.714,0.521 c 0.211,0.177 0.423,0.367 0.645,0.548 l 1.042,9.583 c 0.058,0.852 -0.415,1.373 -1.157,1.475 -0.194,0.022 -0.389,0.048 -0.583,0.07 z M 56.973,40.018 a 69.188,69.188 0 0 1 4.946,-3.215 l -0.265,-0.45 c -0.168,0.101 -0.323,0.189 -0.486,0.291 -0.689,0.406 -1.405,0.238 -1.775,-0.362 -0.698,-1.104 -1.392,-2.212 -2.094,-3.312 0.08,-2.23 0.252,-4.478 0.521,-6.743 0.265,-1.846 0.945,-2.46 1.833,-2.831 l -0.238,-0.459 a 90.657,90.657 0 0 0 -4.708,2.609 l 0.269,0.451 c 0.168,-0.106 0.354,-0.208 0.53,-0.314 0.583,-0.344 0.949,-0.203 1.1,0.066 0.119,0.203 0.128,0.438 0.093,0.76 a 78.914,78.914 0 0 0 -0.393,5.732 78.51,78.51 0 0 0 -5.361,-2.071 c -0.265,-0.097 -0.517,-0.119 -0.716,-0.402 -0.189,-0.27 -0.114,-0.605 0.322,-0.905 0.278,-0.19 0.562,-0.384 0.844,-0.57 l -0.3,-0.45 a 83.897,83.897 0 0 0 -5.776,4.261 l 0.322,0.397 c 0.936,-0.791 1.74,-1.029 3.188,-0.57 a 78.756,78.756 0 0 1 6.518,2.306 l 2.138,3.175 c 0.437,0.654 0.243,1.444 -0.256,1.793 -0.186,0.128 -0.371,0.265 -0.552,0.393 0.093,0.141 0.195,0.278 0.296,0.42 z m 10.93,-20.283 c 0.208,-0.088 0.42,-0.167 0.636,-0.248 0.87,-0.317 1.608,0 1.819,0.614 l 2.266,6.487 c 0.583,1.59 1.29,2.31 1.996,2.747 0.967,0.601 2.503,0.91 4.575,0.354 1.604,-0.424 2.694,-1.126 3.339,-1.837 0.83,-0.91 1.329,-2.084 0.927,-4.275 L 82.252,16.98 c -0.12,-0.623 0.454,-1.308 1.245,-1.444 0.256,-0.04 0.508,-0.08 0.764,-0.115 l -0.093,-0.539 a 85.138,85.138 0 0 0 -5.542,1.068 l 0.11,0.513 c 0.256,-0.058 0.503,-0.115 0.751,-0.164 0.803,-0.177 1.514,0.234 1.643,0.875 0.451,2.234 0.909,4.478 1.36,6.712 0.287,1.448 0.031,2.354 -0.389,2.985 -0.45,0.707 -1.417,1.448 -2.671,1.771 -1.192,0.31 -2.376,0.066 -3.246,-0.596 -0.547,-0.415 -0.962,-0.914 -1.369,-2.19 l -2.009,-6.425 c -0.243,-0.759 0.247,-1.466 0.883,-1.656 0.288,-0.08 0.57,-0.164 0.853,-0.248 l -0.141,-0.5 a 81.696,81.696 0 0 0 -6.699,2.222 c 0.064,0.155 0.135,0.318 0.201,0.486 z m 66.074,150.589 a 82.048,82.048 0 0 0 10.436,-6.425 c -0.35,-1.241 -0.717,-2.473 -1.092,-3.696 l -0.494,0.256 c 0.305,1.775 0.176,2.182 0.027,2.619 -0.244,0.746 -0.73,1.408 -1.715,2.059 a 83.49,83.49 0 0 1 -2.564,1.638 c -0.553,0.335 -0.955,0.243 -1.207,-0.172 -1.678,-2.845 -3.355,-5.692 -5.043,-8.541 -0.375,-0.706 -0.189,-1.382 0.494,-1.806 0.156,-0.094 0.305,-0.186 0.465,-0.287 l -0.297,-0.451 a 68.906,68.906 0 0 1 -5.127,2.941 l 0.248,0.464 c 0.141,-0.071 0.273,-0.142 0.424,-0.221 0.781,-0.407 1.498,-0.168 1.818,0.41 1.564,2.835 3.133,5.661 4.695,8.492 0.396,0.817 0.035,1.541 -0.605,1.886 -0.238,0.128 -0.48,0.252 -0.715,0.375 0.087,0.151 0.164,0.305 0.252,0.459 z M 123.908,32.886 a 68.26,68.26 0 0 1 9.34,4.911 c 0.904,-0.747 1.818,-1.47 2.742,-2.191 -0.111,-0.119 -0.225,-0.238 -0.332,-0.361 -0.604,0.317 -1.262,0.764 -1.871,0.883 -0.752,0.164 -1.582,0.031 -2.346,-0.406 a 64.545,64.545 0 0 0 -3.064,-1.674 c -0.266,-0.132 -0.361,-0.424 -0.252,-0.636 l 2.354,-4.681 a 73.79,73.79 0 0 1 3.295,1.757 c 0.852,0.477 1.029,1.268 0.693,1.837 l -0.424,0.707 c 0.158,0.093 0.322,0.199 0.49,0.296 l 2.588,-4.292 a 54.333,54.333 0 0 1 -0.518,-0.313 L 136.26,29.3 c -0.441,0.742 -1.24,0.918 -2.055,0.459 a 67.448,67.448 0 0 0 -3.311,-1.775 l 2.35,-4.668 a 72.778,72.778 0 0 1 3.537,1.895 c 1.686,0.958 2.088,2.089 1.43,3.511 0.172,0.105 0.34,0.216 0.518,0.322 0.459,-0.905 0.908,-1.802 1.369,-2.703 a 80.856,80.856 0 0 0 -10.9,-5.706 l -0.203,0.473 0.885,0.384 c 0.67,0.301 0.971,0.914 0.697,1.501 l -4.266,9.186 c -0.27,0.596 -0.932,0.817 -1.436,0.592 -0.266,-0.119 -0.521,-0.23 -0.781,-0.34 -0.063,0.15 -0.119,0.304 -0.186,0.455 z m -7.756,-2.813 c 0.168,0.048 0.336,0.097 0.508,0.159 a 98.606,98.606 0 0 1 8.33,-8.898 c 1.227,-1.179 2.137,-1.1 2.879,-0.688 l 0.207,-0.49 a 83.649,83.649 0 0 0 -4.539,-1.723 l -0.172,0.5 c 0.102,0.036 0.193,0.071 0.291,0.106 0.848,0.296 1.047,0.746 0.896,1.139 a 0.86,0.86 0 0 1 -0.252,0.349 99.913,99.913 0 0 0 -6.332,6.606 98.818,98.818 0 0 0 -1.4,-8.85 c -0.08,-0.322 -0.084,-0.438 -0.049,-0.592 0.105,-0.411 0.477,-0.649 1.215,-0.494 0.238,0.062 0.477,0.128 0.719,0.189 l 0.137,-0.494 a 84.31,84.31 0 0 0 -6.465,-1.506 l -0.092,0.508 c 0.953,0.132 1.699,0.702 1.951,1.753 a 98.818,98.818 0 0 1 2.168,12.426 z m 41.366,34.016 a 65.647,65.647 0 0 1 2.521,5.378 l 0.482,-0.199 c -0.062,-0.164 -0.137,-0.332 -0.207,-0.495 -0.336,-0.79 -0.049,-1.444 0.471,-1.727 3.295,-1.475 6.59,-2.963 9.885,-4.452 0.305,0.663 0.586,1.33 0.869,1.996 0.654,1.572 0.336,2.708 -1.232,3.388 0.07,0.185 0.146,0.379 0.217,0.56 0.994,-0.455 1.986,-0.909 2.98,-1.373 a 81.573,81.573 0 0 0 -5.59,-11.937 c -0.994,0.464 -1.982,0.937 -2.969,1.409 l 0.311,0.535 c 1.5,-0.725 2.588,-0.252 3.439,1.391 0.295,0.579 0.592,1.157 0.875,1.74 l -9.496,4.632 c -0.732,0.362 -1.395,0.128 -1.713,-0.367 a 18.21,18.21 0 0 0 -0.379,-0.711 c -0.154,0.073 -0.304,0.153 -0.464,0.232 z M 135.359,39.174 a 70.793,70.793 0 0 1 4.746,3.542 l 0.332,-0.397 -0.402,-0.322 c -0.672,-0.543 -0.76,-1.285 -0.27,-1.912 l 2.65,-3.449 c 0.246,0.199 0.498,0.397 0.75,0.587 a 72.25,72.25 0 0 1 -0.301,7.874 c 0.92,0.839 1.816,1.696 2.689,2.575 l 0.377,-0.371 c -0.885,-0.998 -1.043,-1.581 -0.941,-2.438 0.207,-2.031 0.33,-4.094 0.367,-6.187 0.777,0.455 1.664,0.737 2.455,0.764 1.051,0.053 1.889,-0.23 2.596,-0.976 0.619,-0.667 0.936,-1.758 0.672,-2.884 -0.199,-0.906 -0.689,-1.904 -2.408,-3.308 -0.922,-0.764 -1.945,-1.382 -2.904,-2.102 a 84.947,84.947 0 0 0 -2.871,-2.049 l -0.318,0.45 c 0.154,0.11 0.318,0.216 0.473,0.327 0.83,0.574 1.025,1.378 0.602,1.961 l -5.707,7.931 c -0.396,0.561 -1.178,0.706 -1.85,0.243 -0.141,-0.097 -0.295,-0.199 -0.438,-0.3 -0.096,0.145 -0.197,0.291 -0.299,0.441 z m 36.383,90.523 a 83.616,83.616 0 0 0 1.463,-3.669 c 0.172,-0.464 0.383,-0.91 0.568,-1.374 0.16,-0.406 0.322,-0.816 0.469,-1.236 1.174,-3.581 0.869,-5.922 0.23,-7.428 -0.756,-1.779 -2.307,-3.069 -4.289,-3.471 -2.363,-0.473 -4.385,0.225 -5.967,1.625 -1.041,0.923 -1.969,2.226 -2.83,4.861 -0.291,0.879 -0.561,1.833 -0.584,1.868 -0.1,0.35 -0.211,0.698 -0.344,1.043 a 58.539,58.539 0 0 1 -1.016,2.517 l 0.5,0.217 0.234,-0.543 c 0.273,-0.658 1.02,-0.968 1.619,-0.738 l 9.049,3.59 c 0.602,0.262 0.734,0.509 0.812,0.889 0.049,0.282 0.01,0.68 -0.127,1.016 -0.094,0.207 -0.178,0.41 -0.262,0.627 0.157,0.07 0.313,0.136 0.475,0.206 z"
         id="path1348" />
      <path
         d="m 81.171,141.289 -1.427,-1.674 c -0.371,-0.547 -2.345,-2.014 0.967,-2.142 h 12.484 c 1.047,0 1.507,0.128 1.338,1.175 v 11.15 a 2.59,2.59 0 0 1 -0.755,1.797 c -1.13,-0.415 -2.093,-1.214 -3.056,-1.921 a 67.436,67.436 0 0 1 -9.551,-8.385 z"
         fill="#ffffff"
         id="path1350" />
      <path
         d="m 14.354,97.713 c 0.009,1.872 0.079,3.735 0.211,5.604 l 0.526,-0.035 -0.04,-0.601 c -0.071,-1.029 0.455,-1.647 1.219,-1.674 l 8.606,-0.385 a 96.34,96.34 0 0 0 -10.002,6.028 c 0.018,0.129 0.031,0.256 0.044,0.384 a 93.693,93.693 0 0 0 11.102,3.582 l -8.417,1.585 c -0.791,0.15 -1.396,-0.389 -1.542,-1.055 -0.048,-0.297 -0.105,-0.602 -0.159,-0.896 l -0.526,0.074 a 79.277,79.277 0 0 0 1.422,6.969 l 0.517,-0.133 a 19.419,19.419 0 0 1 -0.164,-0.693 c -0.203,-0.83 0.164,-1.563 0.91,-1.727 l 9.516,-2.106 c 0.773,-0.137 1.352,0.278 1.501,0.91 0.049,0.208 0.097,0.419 0.155,0.627 l 0.529,-0.128 a 67.18,67.18 0 0 1 -0.821,-3.723 92.8,92.8 0 0 1 -10.599,-3.162 94.89,94.89 0 0 1 9.486,-5.652 62.315,62.315 0 0 1 -0.12,-3.864 h -0.525 c 0,0.19 0,0.376 0.009,0.569 0.009,0.813 -0.5,1.36 -1.197,1.383 l -9.729,0.296 c -0.893,-0.018 -1.365,-0.641 -1.4,-1.276 -0.009,-0.3 -0.018,-0.605 -0.018,-0.91 z m 5.458,29.128 a 92.678,92.678 0 0 0 1.868,4.478 l 0.472,-0.212 c -0.049,-0.119 -0.106,-0.248 -0.154,-0.366 -0.389,-0.861 -0.168,-1.22 0.15,-1.356 0.07,-0.03 0.189,-0.075 0.6,-0.048 0.95,0.048 1.904,0.079 2.839,0.097 a 78.795,78.795 0 0 0 2.385,4.813 c -0.569,0.781 -1.135,1.572 -1.691,2.376 -0.115,0.168 -0.198,0.238 -0.305,0.296 -0.331,0.194 -0.848,0.062 -1.135,-0.469 a 29.018,29.018 0 0 1 -0.393,-0.732 l -0.49,0.261 a 82.681,82.681 0 0 0 3.355,5.731 l 0.446,-0.287 c -0.604,-0.94 -0.613,-1.735 -0.163,-2.429 a 99.574,99.574 0 0 1 7.618,-10.32 c -0.08,-0.154 -0.168,-0.31 -0.248,-0.473 a 98.71,98.71 0 0 1 -12.63,0.022 c -1.184,-0.093 -1.678,-0.627 -1.886,-1.148 a 4.108,4.108 0 0 0 -0.168,-0.424 z m 11.46,-51.253 a 72.273,72.273 0 0 1 1.32,-3.846 l -0.481,-0.181 c -0.044,0.11 -0.083,0.216 -0.132,0.322 -0.269,0.742 -0.649,0.826 -0.976,0.707 -0.079,-0.027 -0.194,-0.079 -0.485,-0.34 -0.68,-0.64 -1.36,-1.289 -2.031,-1.947 a 76.62,76.62 0 0 1 1.93,-4.654 c 0.958,0.009 1.908,0.031 2.866,0.057 0.194,0.014 0.3,0.044 0.424,0.102 0.34,0.164 0.552,0.605 0.34,1.064 -0.097,0.216 -0.199,0.429 -0.292,0.636 l 0.495,0.221 a 68.902,68.902 0 0 1 2.478,-4.963 l -0.455,-0.252 c -0.455,0.839 -1.078,1.157 -1.89,1.1 A 98.46,98.46 0 0 0 21.519,63.525 l -0.261,0.597 a 99.302,99.302 0 0 0 8.867,9.088 c 0.844,0.791 0.915,1.413 0.777,1.854 -0.044,0.128 -0.079,0.248 -0.115,0.367 z M 146.266,48.417 c 0.125,0.119 0.248,0.247 0.367,0.375 l 0.07,-0.049 c 0.16,-0.106 0.486,-0.106 0.715,0.133 0.023,0.026 0.041,0.057 0.059,0.084 0.025,0.026 0.049,0.057 0.074,0.083 0.275,0.389 0.367,0.848 0.57,1.25 0.441,0.883 0.543,1.016 0.768,1.28 1.568,1.846 4.006,2.089 5.432,1.038 1.715,-1.267 1.484,-3.25 1.229,-4.787 a 68.462,68.462 0 0 0 -0.613,-3.122 c -0.275,-1.285 -0.027,-1.926 0.432,-2.345 0.844,-0.773 2.139,-0.645 3.203,0.601 1.254,1.466 1.328,3.581 -0.469,5.056 0.133,0.155 0.256,0.313 0.375,0.473 l 3.273,-2.509 c -0.143,-0.185 -0.279,-0.366 -0.42,-0.542 -0.314,0.155 -0.609,0.04 -0.809,-0.203 -0.164,-0.208 -0.178,-0.335 -0.234,-0.459 -0.273,-0.609 -0.518,-1.594 -1.408,-2.632 -1.639,-1.89 -3.904,-2.129 -5.406,-0.663 -0.764,0.729 -1.111,1.842 -0.746,3.546 0.225,0.994 0.416,1.987 0.588,2.967 0.367,2.08 -0.119,2.857 -0.693,3.326 -0.994,0.781 -2.293,0.667 -3.236,-0.446 -1.021,-1.201 -1.221,-2.844 0.082,-4.655 0.125,-0.163 0.248,-0.331 0.367,-0.499 -0.127,-0.137 -0.252,-0.265 -0.379,-0.402 -1.066,1.03 -2.127,2.072 -3.191,3.101 z m 16.384,28.479 a 69.749,69.749 0 0 1 1.381,5.741 l 0.518,-0.097 c -0.035,-0.186 -0.07,-0.376 -0.119,-0.557 -0.154,-0.781 0.246,-1.396 0.936,-1.554 1.277,-0.287 2.549,-0.579 3.816,-0.866 a 79.47,79.47 0 0 1 6.186,2.733 c 1.652,0.861 2.002,1.714 2.059,2.672 l 0.508,-0.07 a 75.367,75.367 0 0 0 -0.896,-5.312 l -0.504,0.106 c 0.035,0.203 0.08,0.402 0.115,0.605 0.129,0.653 -0.123,0.962 -0.424,1.02 -0.242,0.044 -0.455,-0.036 -0.75,-0.172 a 85.204,85.204 0 0 0 -5.27,-2.288 83.283,83.283 0 0 0 3.736,-4.363 c 0.186,-0.212 0.273,-0.45 0.613,-0.543 0.318,-0.092 0.605,0.093 0.748,0.601 0.088,0.335 0.172,0.667 0.26,0.994 l 0.521,-0.128 a 83.346,83.346 0 0 0 -2.094,-6.867 l -0.486,0.176 c 0.438,1.135 0.389,1.974 -0.52,3.193 a 82.177,82.177 0 0 1 -4.346,5.374 l -3.701,0.958 c -0.768,0.189 -1.439,-0.248 -1.607,-0.835 -0.066,-0.216 -0.119,-0.433 -0.186,-0.654 -0.164,0.049 -0.332,0.093 -0.494,0.133 z m 5.202,60.702 a 81.532,81.532 0 0 0 3.201,-6.337 l -0.471,-0.212 c -0.107,0.234 -0.223,0.473 -0.328,0.707 -0.41,0.878 -1.037,1.112 -1.625,0.825 l -9.137,-4.442 c -0.508,-0.243 -0.711,-0.875 -0.463,-1.408 0.115,-0.252 0.238,-0.504 0.348,-0.751 l -0.49,-0.226 a 67.299,67.299 0 0 1 -2.676,5.295 l 0.459,0.247 c 0.129,-0.216 0.248,-0.45 0.381,-0.675 0.305,-0.574 0.932,-0.769 1.471,-0.486 l 8.875,4.668 c 0.689,0.357 0.805,1.051 0.504,1.616 -0.164,0.309 -0.336,0.618 -0.504,0.923 z M 28.834,86.677 a 70.6,70.6 0 0 1 1.17,-6.341 c 0.394,-1.718 0.226,-2.804 -0.176,-3.617 -0.433,-0.878 -1.219,-1.59 -2.173,-1.881 -1.458,-0.451 -3.073,0.198 -3.943,1.951 -0.119,-1.594 -0.994,-2.791 -2.199,-3.157 -1.652,-0.499 -4.019,0.627 -4.928,4.69 -0.194,0.874 -0.292,1.775 -0.433,2.662 -0.062,0.42 -0.11,0.826 -0.176,1.229 -0.146,0.896 -0.283,1.783 -0.406,2.68 l 0.534,0.075 c 0.035,-0.278 0.079,-0.547 0.119,-0.821 0.097,-0.671 0.769,-1.285 1.466,-1.17 l 9.583,1.559 c 0.808,0.132 1.228,0.782 1.14,1.431 -0.036,0.212 -0.066,0.42 -0.098,0.632 0.18,0.029 0.348,0.051 0.52,0.078 z M 152.439,55.835 a 67.773,67.773 0 0 1 3.25,4.963 l 0.441,-0.256 c -0.109,-0.194 -0.229,-0.38 -0.334,-0.569 -0.43,-0.698 -0.258,-1.29 0.295,-1.634 l 8.584,-5.436 c 0.486,-0.305 1.162,-0.084 1.529,0.508 0.162,0.283 0.336,0.561 0.498,0.839 l 0.469,-0.269 a 85.6,85.6 0 0 0 -3.877,-5.922 l -0.42,0.305 c 0.178,0.251 0.354,0.499 0.535,0.76 0.432,0.626 0.348,1.346 -0.15,1.678 l -8.299,5.622 c -0.652,0.438 -1.268,0.274 -1.58,-0.159 -0.172,-0.238 -0.346,-0.485 -0.521,-0.724 z M 17.225,118.949 a 80.516,80.516 0 0 0 2.151,6.766 l 0.494,-0.178 c -0.097,-0.247 -0.181,-0.494 -0.269,-0.741 -0.327,-0.905 -0.04,-1.515 0.579,-1.723 l 9.627,-3.236 c 0.543,-0.182 1.126,0.124 1.32,0.68 0.093,0.261 0.186,0.521 0.287,0.781 l 0.495,-0.181 a 73.293,73.293 0 0 1 -1.797,-5.648 l -0.499,0.133 c 0.062,0.252 0.132,0.499 0.208,0.756 0.176,0.626 -0.132,1.196 -0.715,1.377 l -9.601,2.893 c -0.737,0.226 -1.312,-0.189 -1.488,-0.804 -0.102,-0.336 -0.19,-0.675 -0.292,-1.007 z"
         id="path1352" />
      <path
         d="M 84.941,67.332 H 71.83 c -0.834,0 -0.794,0.626 0.124,0.626 h 12.988 c 0.75,0 0.671,-0.626 -10e-4,-0.626 z"
         fill="#ffffff"
         id="path1354" />
      <path
         d="m 151.98,157.955 c 1.621,-1.492 2.398,-3.06 2.566,-4.8 0.186,-1.793 -0.514,-3.793 -2.209,-5.316 -1.523,-1.36 -3.408,-1.952 -5.105,-1.917 -1.594,0.049 -3.297,0.746 -4.486,1.833 -1.279,1.184 -2.123,3.122 -2.092,5.118 0.021,1.338 0.543,3.024 1.518,4.314 1.162,1.515 2.818,2.429 4.297,2.601 1.957,0.247 4.08,-0.499 5.511,-1.833 z"
         id="path1356" />
      <path
         d="m 89.496,133.016 -12.484,-0.04 c -0.919,0 -1.047,0.711 0.088,0.711 l 12.396,-0.044 c 1.13,0 1.006,-0.627 0,-0.627 z"
         fill="#ffffff"
         id="path1358" />
      <path
         d="m 176.596,114.237 c 0.322,-1.581 0.613,-3.184 0.848,-4.782 l -0.508,-0.071 -0.066,0.397 c -0.141,0.932 -0.521,1.108 -0.852,1.051 -0.084,-0.013 -0.203,-0.039 -0.539,-0.277 a 86.614,86.614 0 0 0 -2.34,-1.63 c 0.27,-1.771 0.467,-3.555 0.609,-5.339 a 98.974,98.974 0 0 0 2.707,-1.078 c 0.189,-0.07 0.295,-0.093 0.414,-0.084 0.389,0.027 0.746,0.406 0.707,1.007 -0.021,0.283 -0.049,0.553 -0.07,0.831 l 0.551,0.044 c 0.186,-2.204 0.279,-4.421 0.287,-6.629 h -0.529 c -0.01,1.113 -0.438,1.784 -1.184,2.129 a 97.487,97.487 0 0 1 -11.99,4.54 c -0.012,0.181 -0.035,0.361 -0.049,0.539 a 96.832,96.832 0 0 1 10.627,6.831 c 0.945,0.72 1.072,1.431 0.963,1.978 -0.031,0.146 -0.059,0.292 -0.09,0.442 z"
         id="path1360" />
      <path
         d="M 84.081,99.769 H 71.305 c -0.503,0 -0.755,0.627 0,0.627 h 12.776 c 0.503,0 0.883,-0.627 0,-0.627 z"
         fill="#ffffff"
         id="path1362" />
      <path
         d="m 42.056,158.914 a 80.862,80.862 0 0 0 5.516,4.473 l 0.309,-0.424 -0.627,-0.463 c -0.769,-0.588 -0.866,-1.25 -0.459,-1.767 l 6.262,-7.993 c 0.349,-0.445 0.998,-0.517 1.471,-0.164 0.225,0.169 0.446,0.341 0.667,0.504 l 0.323,-0.433 a 68.2,68.2 0 0 1 -4.606,-3.731 l -0.349,0.397 c 0.199,0.168 0.393,0.345 0.591,0.508 0.491,0.429 0.544,1.077 0.159,1.541 l -6.434,7.702 c -0.495,0.591 -1.192,0.556 -1.678,0.146 -0.273,-0.226 -0.534,-0.45 -0.803,-0.681 z m 79.02,16.75 a 79.9,79.9 0 0 0 6.615,-2.412 l -0.197,-0.485 c -0.283,0.115 -0.557,0.229 -0.84,0.345 -0.742,0.291 -1.387,0.062 -1.639,-0.601 l -1.738,-4.571 a 79.169,79.169 0 0 0 3.293,-1.347 c 1.02,-0.45 1.797,-0.189 2.186,0.637 l 0.262,0.556 c 0.176,-0.088 0.354,-0.176 0.533,-0.26 L 127.406,163 a 11.6,11.6 0 0 0 -0.5,0.238 l 0.229,0.495 c 0.398,0.86 0.098,1.642 -0.979,2.115 a 70.269,70.269 0 0 1 -3.168,1.289 l -1.857,-4.857 a 62.992,62.992 0 0 0 3.387,-1.404 c 1.275,-0.565 2.266,-0.358 3.162,1.028 0.158,-0.075 0.326,-0.154 0.484,-0.238 -0.516,-0.853 -1.023,-1.714 -1.531,-2.57 a 68.353,68.353 0 0 1 -9.578,3.838 l 0.158,0.494 c 0.178,-0.058 0.357,-0.11 0.535,-0.168 0.873,-0.286 1.373,0.005 1.531,0.474 l 3.348,9.68 c 0.213,0.732 -0.141,1.227 -0.883,1.475 -0.277,0.093 -0.564,0.181 -0.854,0.273 0.067,0.161 0.126,0.338 0.186,0.502 z"
         id="path1364" />
      <path
         d="m 172.639,124.88 -10.85,-3.909 c 0.035,-0.547 0.137,-1.041 0.348,-1.699 1.1,-3.316 3.768,-5.074 7.469,-4.235 3.621,0.826 5.207,4.099 3.965,7.883 -0.186,0.568 -0.491,1.226 -0.932,1.96 z"
         fill="#ffffff"
         id="path1366" />
      <path
         d="m 71.021,175.668 c 5.123,1.643 9.499,-1.506 10.294,-5.74 0.782,-3.948 -0.954,-5.922 -2.703,-6.399 -1.06,-0.282 -2.098,-0.105 -3.104,0.579 a 4.987,4.987 0 0 0 -1.965,2.636 c -0.843,2.495 0.499,4.43 2.469,4.955 0.799,0.226 1.74,0.212 2.711,-0.155 -0.866,1.674 -1.939,2.646 -3.242,3.26 -1.431,0.711 -2.844,0.79 -4.288,0.375 -0.057,0.158 -0.114,0.326 -0.172,0.489 z"
         id="path1368" />
      <path
         d="m 151.482,157.258 c -1.061,0.893 -2.17,1.18 -3.318,0.91 -0.979,-0.217 -2.582,-1.127 -3.889,-2.721 -1.273,-1.546 -1.852,-3.268 -1.93,-4.16 -0.094,-1.201 0.291,-2.15 1.051,-2.861 0.879,-0.809 1.885,-1.122 3.236,-0.83 0.945,0.207 2.455,0.905 3.869,2.274 1.303,1.254 2.031,2.671 2.229,3.639 0.311,1.382 -0.123,2.653 -1.248,3.749 z"
         fill="#ffffff"
         id="path1370" />
      <path
         d="m 81.341,174.741 c 1.965,0.384 3.957,0.692 5.944,0.923 -0.12,1.086 -0.238,2.172 -0.354,3.254 0.627,0.08 1.263,0.142 1.899,0.199 l 0.305,-3.259 c 0.648,0.058 1.298,0.114 1.951,0.154 l 0.093,-1.444 a 96.655,96.655 0 0 1 -1.903,-0.15 l 0.795,-8.615 c -0.344,-0.026 -0.685,-0.066 -1.024,-0.102 a 75.194,75.194 0 0 1 -7.445,7.697 z m 16.358,4.954 c 3.383,-0.225 4.865,-3.811 4.574,-7.057 -0.211,-2.539 -1.268,-4.521 -2.123,-5.444 -0.969,-1.003 -1.926,-1.343 -2.65,-1.325 -0.543,0.004 -1.166,0.181 -1.784,0.604 -1.215,0.861 -2.681,2.941 -2.844,6.059 -0.221,3.931 1.784,7.155 4.827,7.163 z m -34.004,-7.007 a 81.213,81.213 0 0 0 5.471,2.15 l 0.173,-0.49 c -0.261,-0.098 -0.53,-0.194 -0.791,-0.287 -0.521,-0.186 -0.883,-0.817 -0.702,-1.28 l 4.297,-11.354 a 68.99,68.99 0 0 1 -3.484,0.097 v 0.495 c 0.375,0.044 0.468,0.044 0.693,0.137 0.375,0.15 0.552,0.468 0.331,1.02 l -3.613,8.886 c -0.198,0.499 -0.852,0.711 -1.444,0.463 -0.238,-0.097 -0.481,-0.211 -0.729,-0.317 z M 102.764,27.542 a 67.78,67.78 0 0 1 5.877,0.773 l 0.094,-0.508 a 15.293,15.293 0 0 1 -0.658,-0.115 c -0.805,-0.132 -1.148,-0.645 -1.051,-1.29 l 1.484,-10.055 c 0.088,-0.561 0.711,-0.936 1.385,-0.83 0.328,0.062 0.646,0.11 0.969,0.168 l 0.092,-0.53 a 83.42,83.42 0 0 0 -7.012,-0.923 l -0.041,0.525 c 0.305,0.026 0.605,0.053 0.91,0.084 0.773,0.075 1.264,0.605 1.188,1.219 l -1.146,9.949 c -0.098,0.782 -0.629,1.135 -1.162,1.095 a 35.286,35.286 0 0 0 -0.883,-0.08 z"
         id="path1372" />
      <path
         d="m 69.76,97.062 c -0.084,0.335 -0.208,1.091 0.04,1.302 0.463,0.372 1.174,-0.048 1.718,-0.172 0.543,-0.123 3.061,-0.922 4.946,0.124 0.04,0 0.627,0 0.627,-1.007 v -5.864 c -0.543,-0.503 -0.879,-0.755 -1.55,-0.755 -1.086,0 -2.804,0.38 -2.804,0.38 -0.379,0.164 -1.634,0.335 -1.678,0.503 z m 2.125,-37.499 -1.17,4.526 -0.296,0.963 c -0.208,0.795 0.375,0.923 0.715,0.883 0.331,-0.04 2.804,-1.134 4.314,-0.631 0.371,0.128 1.13,0.296 1.417,0.335 0.548,0.084 0.883,-0.208 0.883,-0.799 V 58.6 l -1.007,-0.292 c -0.923,-0.172 -2.053,-0.049 -2.72,0.503 -0.504,0.371 -0.883,0.371 -1.298,0.543 z m 5.035,65.66 -1.634,5.449 c 0.044,0.291 -0.04,0.711 0.252,0.835 0.291,0.128 0.499,0.212 0.755,0.335 0.247,0.128 3.432,-0.667 4.062,-0.583 0.671,0.085 1.042,0.124 1.678,0.376 0.371,-0.168 0.627,-0.632 0.627,-1.047 v -5.908 c -0.38,-0.42 -1.758,-0.711 -2.177,-0.504 -1.889,0.963 -3.355,0.42 -3.563,1.047 z m 8.452,-27.858 -1.718,-5.657 c -0.08,-0.252 -0.923,-0.335 -2.932,-0.799 -1.802,-0.459 -2.557,0.256 -2.557,0.547 v 5.948 c 0,0.632 0.044,0.968 0.543,0.8 1.427,-0.504 3.356,-0.716 5.114,0 0.296,0 1.007,0.331 1.254,0.207 0.172,-0.084 0.335,-0.296 0.335,-0.503 z M 83.929,59.159 83.006,58.951 c -0.667,-0.296 -1.214,-1.095 -2.804,-0.592 l -1.303,0.34 v 6.156 c 0.088,0.172 0.088,1.007 0.799,0.799 0.711,-0.251 1.758,-0.627 2.513,-0.503 1.174,0.128 2.138,0.883 3.268,1.007 0.711,-0.295 0.627,-0.543 0.42,-1.303 z m 0.076,65.532 v 5.908 c 0,0.879 0.38,1.131 0.963,1.091 0.671,-0.04 1.55,-0.212 2.177,-0.252 1.259,-0.128 2.345,0.632 3.648,0.46 0.083,-0.208 0.331,-0.46 0.331,-0.667 l -1.377,-5.578 c -0.379,-1.55 -0.627,-0.163 -3.52,-1.382 -0.38,-0.167 -1.887,0.084 -2.222,0.42 z M 43.438,42.451 39.468,38.468 A 5.73,5.73 0 0 1 40.462,37.2 c 1.298,-1.241 3.091,-1.356 4.261,-0.022 0.618,0.698 0.791,1.396 0.663,2.19 -0.115,0.751 -0.623,1.775 -1.625,2.769 -0.106,0.097 -0.217,0.208 -0.323,0.314 z m 99.416,-6.373 3.434,-4.465 c 0.518,0.226 0.959,0.495 1.393,0.84 1.395,1.13 1.74,2.893 0.57,4.226 -0.615,0.703 -1.291,0.967 -2.09,0.937 -0.768,-0.026 -1.838,-0.389 -2.955,-1.254 -0.11,-0.094 -0.233,-0.191 -0.352,-0.284 z M 33.538,54.656 28.821,51.583 c 0.186,-0.53 0.416,-0.984 0.725,-1.444 1.016,-1.497 2.738,-1.974 4.16,-0.909 0.75,0.557 1.073,1.209 1.108,2.009 0.026,0.768 -0.248,1.859 -1.024,3.038 -0.076,0.128 -0.164,0.26 -0.252,0.379 z m -4.912,27.848 -5.52,-1.082 c 0,-0.415 0.027,-0.684 0.106,-1.064 0.534,-2.521 2.186,-3.36 3.656,-2.958 1.696,0.455 2.583,1.943 2.16,3.913 a 6.357,6.357 0 0 1 -0.402,1.191 z m 127.003,61.059 -4.447,-3.462 c 0.172,-0.45 0.385,-0.839 0.658,-1.21 0.914,-1.214 2.49,-1.595 3.957,-0.592 0.775,0.53 1.121,1.148 1.182,1.938 0.059,0.747 -0.225,1.851 -1.076,2.959 -0.094,0.124 -0.182,0.244 -0.274,0.367 z m -72.822,29.985 a 75.889,75.889 0 0 0 5.375,-5.528 l -0.72,6.213 a 86.835,86.835 0 0 1 -4.655,-0.685 z m -60.623,-92.29 -5.021,-0.98 a 4.625,4.625 0 0 1 0.088,-1.537 c 0.389,-1.851 1.992,-2.968 3.515,-2.557 1.502,0.389 2.213,1.541 1.691,3.992 -0.083,0.389 -0.176,0.738 -0.273,1.082 z m 75.492,97.705 c -0.931,-0.045 -2.799,-0.481 -2.667,-6.311 0.062,-3.127 0.795,-4.725 0.936,-4.986 0.482,-0.834 1.024,-1.086 1.559,-1.091 0.609,0 2.322,0.31 2.658,6.24 0.125,2.318 -0.277,4.01 -0.49,4.518 -0.539,1.254 -1.334,1.607 -1.996,1.63 z m 74.668,-70.577 a 107.58,107.58 0 0 0 -4.479,-2.765 c 1.664,-0.521 3.33,-1.095 4.99,-1.709 -0.132,1.493 -0.3,2.99 -0.511,4.474 z M 26.556,129.455 c 1.762,0.013 3.52,-0.022 5.26,-0.102 a 91.353,91.353 0 0 0 -3.263,4.142 76.84,76.84 0 0 1 -1.997,-4.04 z M 27.823,69.64 a 90.082,90.082 0 0 1 -3.63,-3.85 c 1.771,-0.098 3.533,-0.155 5.286,-0.16 a 84.386,84.386 0 0 0 -1.656,4.01 z m 51.712,99.762 c -0.08,0.331 -0.19,0.675 -0.305,0.998 -0.618,0.551 -1.669,0.772 -2.441,0.564 -1.616,-0.428 -1.775,-2.711 -1.197,-4.619 0.636,-2.08 1.797,-2.424 2.609,-2.203 0.76,0.207 1.096,0.769 1.334,1.443 0.234,0.699 0.406,2.037 0,3.817 z"
         fill="#ffffff"
         id="path1374" />
      <path
         d="m 172.031,89.369 a 1.951,1.951 0 0 0 -1.949,1.949 c 0,1.074 0.875,1.949 1.949,1.949 1.074,0 1.947,-0.875 1.947,-1.949 a 1.95,1.95 0 0 0 -1.947,-1.949 z m -149.611,0 a 1.95,1.95 0 0 0 -1.948,1.949 c 0,1.074 0.875,1.949 1.948,1.949 1.073,0 1.948,-0.875 1.948,-1.949 A 1.95,1.95 0 0 0 22.42,89.369 Z m 37.649,71.655 c -1.074,0 -1.948,0.874 -1.948,1.948 0,1.074 0.875,1.949 1.948,1.949 1.073,0 1.949,-0.875 1.949,-1.949 0,-1.074 -0.875,-1.948 -1.949,-1.948 z m 52.908,7.566 a 1.951,1.951 0 0 0 -1.949,1.948 c 0,1.075 0.875,1.949 1.949,1.949 a 1.95,1.95 0 0 0 0,-3.897 z"
         id="path1376" />
    </g>
  </g>
</svg>
